# xmcd
#
# Track frame offsets:
#	150
#	17038
#	34073
#	51599
#	64750
#	76947
#	90767
#	108112
#
# Disc length: 1696 seconds
#
# Revision: 0
# Processed by: cddbd v1.5.2PL0 Copyright (c) Steve Scherf et al.
# Submitted via: dBpowerAMP V4.0
#
DISCID=56069e08
DTITLE=Sunday Valley - Sunday Valley
DYEAR=2004
DGENRE=Country
TTITLE0=Sometimes Wine
TTITLE1=Where Did We Go Wrong?
TTITLE2=I Wonder
TTITLE3=Honky Tonk Guy
TTITLE4=Old Sunchine
TTITLE5=Jesus Boogie
TTITLE6=911
TTITLE7=Folded Flag
EXTD=
EXTT0=
EXTT1=
EXTT2=
EXTT3=
EXTT4=
EXTT5=
EXTT6=
EXTT7=
PLAYORDER=
